<svg width="32" height="24" viewBox="0 0 32 24" fill="none" xmlns="http://www.w3.org/2000/svg">
<rect width="32" height="24" rx="4" fill="#F6F6FA"/>
<path d="M17.6812 8.84383L15.8644 12.7584H15.6805V8.00037H13.0851V16.0024H15.2372C15.8211 16.0024 16.3402 15.6672 16.5889 15.1482L18.4166 11.2445H18.6004V16.0024H21.1958V8.00037H19.0113C18.449 8.00037 17.9191 8.33559 17.6812 8.84383Z" fill="#319B42"/>
<path d="M7.97242 9.04929L6.90181 12.7584H6.71797L5.63654 9.04929C5.4527 8.4221 4.87954 8.00037 4.23069 8.00037H1.66771V16.0024H4.26313V11.2445H4.44697L5.93934 16.0024H7.66962L9.16199 11.2445H9.34583V16.0024H11.9412V8.00037H9.37827C8.72942 8.00037 8.14545 8.4221 7.97242 9.04929Z" fill="#319B42"/>
<path d="M22.3243 11.5675V16.0024H24.9206V13.4064H27.7116C28.9231 13.4064 29.9508 12.6383 30.3294 11.5675H22.3243Z" fill="#319B42"/>
<path d="M27.6357 8.00037H21.859C22.216 9.90417 23.8819 11.2455 25.8832 11.2455H30.3726C30.405 11.0724 30.4267 10.8777 30.4267 10.683C30.4267 9.13616 29.1826 8.00037 27.6357 8.00037Z" fill="url(#paint0_linear_2_3459)"/>
<defs>
<linearGradient id="paint0_linear_2_3459" x1="21.859" y1="9.62293" x2="30.4267" y2="9.62293" gradientUnits="userSpaceOnUse">
<stop stop-color="#00A3E1"/>
<stop offset="0.3042" stop-color="#009ADD"/>
<stop offset="0.7987" stop-color="#0082D4"/>
<stop offset="1" stop-color="#0076CF"/>
</linearGradient>
</defs>
</svg>
